<svg width="100" height="100" viewBox="0 0 100 100" fill="none" xmlns="http://www.w3.org/2000/svg">
<path d="M50 0C40.1109 0 30.444 2.93245 22.2215 8.42652C13.9991 13.9206 7.59043 21.7295 3.80604 30.8658C0.0216641 40.0021 -0.968502 50.0555 0.960758 59.7545C2.89002 69.4535 7.65206 78.3627 14.6447 85.3553C21.6373 92.3479 30.5464 97.11 40.2455 99.0392C49.9445 100.968 59.9979 99.9783 69.1342 96.194C78.2705 92.4096 86.0794 86.0009 91.5735 77.7785C97.0675 69.556 100 59.8891 100 50C100 36.7392 94.7322 24.0215 85.3553 14.6447C75.9785 5.26784 63.2608 0 50 0ZM15.16 36.43C19.5313 35.7611 23.9336 35.3139 28.35 35.09C30.4032 35.0898 32.4542 35.2234 34.49 35.49C47.33 37.16 62.49 47.31 66.49 54.8C66.0981 54.312 65.6773 53.8478 65.23 53.41C58.63 47.56 46.86 41.9 35.85 41.17C30.29 40.8 24.52 41.91 17.66 43.67C16.6181 41.3338 15.7817 38.9113 15.16 36.43ZM19 46.29C23.11 45.06 27 43.44 35.61 42.99C45.05 42.49 56.61 47.37 65.01 53.99C65.5906 54.4315 66.0912 54.9693 66.49 55.58C47.17 45.73 30.49 51.75 24.49 55.11C22.3495 52.375 20.5089 49.4181 19 46.29ZM26.53 57.07C32.53 54.15 38.67 52.14 44.83 51.83C51.6481 51.3651 58.4744 52.6094 64.69 55.45C65.91 55.92 66.15 56.29 66.15 56.29C65.67 56.18 60.53 55.85 58.95 55.85C58.19 55.85 57.42 55.85 56.67 55.9C48.57 56.31 40.94 57.98 33.44 63.34C30.9438 61.4692 28.6272 59.3701 26.52 57.07H26.53ZM35.27 64.65C42.27 59.41 48.85 57.65 56.83 56.88C58.35 56.74 62.09 56.76 63.25 56.82C63.25 56.82 65.72 56.92 66.09 56.98C62.7289 57.2282 59.4126 57.9002 56.22 58.98C50.5651 60.8555 45.3903 63.9481 41.06 68.04C39.0529 67.0413 37.1152 65.9087 35.26 64.65H35.27ZM43.27 69.11C47.17 65.34 49.62 63 56 60.25C59.1417 58.8907 62.4742 58.0239 65.88 57.68C64.5315 59.3945 63.4493 61.3026 62.67 63.34C61.9055 65.5026 61.3464 67.7325 61 70C54.25 71.43 48.67 71.49 43.29 69.12L43.27 69.11ZM93.27 43.34C89.7558 44.3749 86.3525 45.755 83.11 47.46C82.4572 47.7167 81.8728 48.1212 81.4026 48.6417C80.9325 49.1622 80.5893 49.7846 80.4 50.46C79.51 52.84 79.4 56.74 79.54 60.26C79.7098 61.6806 79.7299 63.1152 79.6 64.54C78.93 75.91 70.06 82.65 61.6 90.17C58.93 92.54 53.05 97.39 52.67 97.54C51.81 97.88 52.49 96.74 52.49 96.74L61.92 80.32C61.92 66.91 64.92 60.98 68.22 56.83C68.5338 56.4192 68.908 56.0585 69.33 55.76C69.0971 55.5668 68.8859 55.3488 68.7 55.11C67.54 53.67 66.98 51.29 67.79 49.77C68.4379 48.5818 69.364 47.5682 70.489 46.8159C71.614 46.0636 72.9044 45.5949 74.25 45.45C74.8832 45.3863 75.5221 45.4065 76.15 45.51C77.48 45.56 78.95 45.86 80.3 46C81.65 46.14 84.67 44.5 88.24 43.51C90.7347 42.8057 93.3084 42.4193 95.9 42.36C96.23 42.36 97.27 42.36 97.4 42.56C97.0013 42.6613 96.5914 42.7117 96.18 42.71C95.2021 42.8688 94.2339 43.0824 93.28 43.35L93.27 43.34Z" fill="#DC143C"/>
<path opacity="0.6" d="M65 54.0002C56.64 47.3902 45 42.5102 35.6 43.0002C27 43.4402 23.1 45.0502 19 46.2902C20.5127 49.4153 22.3566 52.3689 24.5 55.1002C30.5 51.7402 47.16 45.7202 66.5 55.5702C66.0934 54.965 65.586 54.434 65 54.0002Z" fill="#DC143C"/>
<path opacity="0.8" d="M35.8399 41.1801C46.8399 41.9101 58.6199 47.5701 65.2199 53.4201C65.6672 53.8579 66.088 54.3221 66.4799 54.8101C62.4799 47.3201 47.3299 37.1701 34.4799 35.5001C32.4441 35.2335 30.3931 35.0999 28.3399 35.1001C23.9234 35.324 19.5211 35.7712 15.1499 36.4401C15.7645 38.9242 16.5943 41.35 17.6299 43.6901C24.4999 41.9201 30.2799 40.8101 35.8399 41.1801Z" fill="#DC143C"/>
<path opacity="0.4" d="M64.68 55.45C58.4644 52.6094 51.6381 51.3651 44.82 51.83C38.66 52.14 32.53 54.15 26.52 57.07C28.624 59.3696 30.9373 61.4687 33.43 63.34C40.93 57.98 48.56 56.34 56.66 55.9C57.41 55.9 58.18 55.85 58.94 55.85C60.52 55.85 65.66 56.18 66.14 56.29C66.14 56.29 65.9 55.92 64.68 55.45Z" fill="#DC143C"/>
<path opacity="0.2" d="M56.8198 56.8903C48.8198 57.6303 42.2598 59.4203 35.2598 64.6603C37.1111 65.9255 39.0455 67.0647 41.0498 68.0703C45.3791 63.9748 50.554 60.8787 56.2098 59.0003C59.4024 57.9205 62.7187 57.2485 66.0798 57.0003C65.7098 56.9403 63.2598 56.8403 63.2398 56.8403C62.0798 56.7703 58.3498 56.7503 56.8198 56.8903Z" fill="#DC143C"/>
<path opacity="0.1" d="M43.29 69.1199C48.67 71.4899 54.29 71.4299 60.98 70.0299C61.3252 67.7557 61.8844 65.5191 62.65 63.3499C63.4293 61.3126 64.5115 59.4045 65.86 57.6899C62.4616 58.0327 59.136 58.8961 56 60.2499C49.62 62.9999 47.17 65.3399 43.29 69.1199Z" fill="#DC143C"/>
</svg>
